<svg xmlns="http://www.w3.org/2000/svg" width="511.998" height="398.856" viewBox="0 0 511.998 398.856">
  <g id="Layer_x0020_1" transform="translate(-97.817 -149.62)">
    <path id="Path_97" data-name="Path 97" d="M461.685,333.7l100.07,100.069a28.244,28.244,0,0,0,39.837,0l-.011-.013a28.21,28.21,0,0,0,.011-39.826L501.522,293.859A97.873,97.873,0,1,0,461.685,333.7Zm-7.375-93.743c7.232,12.469,12.037,28.959,14.142,48.067,3.66,59.862-145.266,28.272-117.594-30.917,11.431-15.67,23.894-27.686,36.434-34.942,12.723-7.359,25.6-9.938,37.761-6.682,12.1,3.242,21.931,11.844,29.257,24.473ZM368.22,197.925Zm116.7,48.338a68.332,68.332,0,0,1-7.736,31.625c-2.228-14.956-6.816-29.893-14.35-42.88-7.99-13.774-19.582-24.853-35.229-29.046-15.729-4.213-31.4-.341-45.245,7.671-13.079,7.566-24.555,18.764-34.135,30.7a68.361,68.361,0,0,1,136.7,1.926Z" fill-rule="evenodd" style="fill: rgb(255, 255, 255);"></path>
    <path id="Path_98" data-name="Path 98" d="M303.284,412.44l116.2,31.135.007,0a5.517,5.517,0,0,1,3.9,6.757l-.074.25-14.194,52.971a60.79,60.79,0,0,1-74.235,42.868l-10-2.68A60.791,60.791,0,0,1,282.019,469.5l14.263-53.23-.006-.007a5.519,5.519,0,0,1,6.757-3.9l.25.074Z" style="fill: rgb(255, 255, 255);"></path>
    <path id="Path_99" data-name="Path 99" d="M293.52,396.093a5.506,5.506,0,0,0,4.89,6.057l.213.018,130.269,34.99.008,0a5.511,5.511,0,0,0,6.976-2.94q4.615-10.433,8.7-22.055c2.648-7.548,5.046-15.288,7.155-23.163,2.653-9.9,4.792-19.747,6.425-29.419q.4-2.376.764-4.734l-6.728-6.726a107.822,107.822,0,0,1-135.516-40.682q-2.7,6.353-5.181,13.019c-3.418,9.208-6.475,18.75-9.1,28.537-2.117,7.9-3.912,15.807-5.391,23.646-1.5,7.959-2.66,15.8-3.485,23.45Z" style="fill: rgb(255, 255, 255);"></path>
    <path id="Path_100" data-name="Path 100" d="M114.838,368.925H235.4a5.518,5.518,0,0,1,5.517,5.518v55.108A60.785,60.785,0,0,1,180.3,490.174H169.946a60.789,60.789,0,0,1-60.625-60.623V374.443a5.518,5.518,0,0,1,5.517-5.518Z" style="fill: rgb(255, 255, 255);"></path>
    <path id="Path_101" data-name="Path 101" d="M243,360.3a5.493,5.493,0,0,0,5.793-4.642c1.2-7.734,2.12-15.6,2.718-23.55s.913-16.049.913-24.228c0-42.471-8.243-81.03-21.567-109.031-13.921-29.258-33.6-47.357-55.739-47.357s-41.818,18.1-55.739,47.357c-13.324,28-21.566,66.56-21.566,109.031,0,8.179.311,16.277.911,24.228.6,8.014,1.644,14.725,1.644,22.709a5.518,5.518,0,0,0,5.517,5.518H242.381A5.406,5.406,0,0,0,243,360.3Z" style="fill: rgb(255, 255, 255);"></path>
  </g>
</svg>